<svg width="13" height="13" viewBox="0 0 13 13" fill="none" xmlns="http://www.w3.org/2000/svg">
<path d="M6.22559 0C2.7873 0 0 2.7873 0 6.22559C0 9.66387 2.7873 12.4512 6.22559 12.4512C9.66387 12.4512 12.4512 9.66387 12.4512 6.22559C12.4512 2.7873 9.66387 0 6.22559 0ZM8.22188 9.21973C8.40527 9.40254 8.40557 9.69932 8.22275 9.88271C8.13105 9.97441 8.01094 10.0204 7.89082 10.0204C7.771 10.0204 7.65146 9.97471 7.55977 9.88359L4.2293 6.5625C4.14111 6.47461 4.0916 6.35537 4.0916 6.23086C4.0916 6.10635 4.14082 5.98711 4.229 5.89893L7.55977 2.56816C7.74287 2.38506 8.03965 2.38506 8.22275 2.56816C8.40586 2.75127 8.40586 3.04805 8.22275 3.23115L5.22363 6.22998L8.22188 9.21973Z" fill="#333333"/>
</svg>
