<svg xmlns="http://www.w3.org/2000/svg" width="16" height="16" fill="none" viewBox="0 0 16 16">
    <path fill="#fff" d="M3.227 3.227c.275-.275.71-.303 1.016-.07l.08.07L8 6.905l3.678-3.678c.282-.282.728-.301 1.032-.057l.063.057c.275.275.303.71.062 1.026l-.062.07L9.095 8l3.678 3.678c.283.282.301.728.057 1.032l-.057.063c-.275.275-.71.303-1.025.062l-.07-.062-3.679-3.678-3.677 3.678c-.282.283-.728.301-1.032.057l-.063-.057c-.275-.275-.303-.71-.062-1.025l.062-.07L6.904 8 3.227 4.322c-.282-.282-.301-.728-.057-1.032l.057-.063z"/>
    <path fill="#fff" fill-rule="evenodd" d="M3.086 3.086c.345-.346.892-.381 1.278-.087l.011.008.09.078L8 6.622l3.536-3.536c.356-.356.917-.38 1.3-.071l.008.006.07.064c.348.347.38.895.08 1.289l-.005.005-.074.085L9.378 8l3.537 3.536c.355.356.379.917.07 1.3l-.006.008-.064.07c-.347.348-.895.38-1.289.08l-.005-.004-.085-.075-3.537-3.537-3.535 3.537c-.355.355-.917.379-1.3.07l-.008-.006-.07-.064c-.348-.347-.38-.895-.08-1.289l.005-.005.074-.085L6.622 8 3.086 4.464c-.356-.355-.38-.917-.071-1.3l.006-.008.065-.07zM6.904 8l-3.677 3.678-.062.07c-.24.316-.213.75.062 1.025l.063.057c.304.244.75.226 1.032-.057L8 9.095l3.679 3.678.07.062c.316.24.75.213 1.025-.062l.057-.063c.244-.304.226-.75-.057-1.032L9.095 8l3.678-3.678.062-.07c.24-.315.213-.75-.062-1.025l-.063-.057c-.304-.244-.75-.225-1.032.057L8 6.905 4.322 3.227l-.079-.07c-.306-.233-.741-.205-1.016.07l-.057.063c-.244.304-.225.75.057 1.032L6.904 8z" clip-rule="evenodd"/>
</svg>
