<svg width="15" height="15" viewBox="0 0 15 15" fill="none" xmlns="http://www.w3.org/2000/svg">
<path d="M14.6747 6.25423L13.6803 2.27675C13.6554 2.18973 13.6244 2.10893 13.5871 2.03437L11.8283 3.79318C12.0583 4.28413 11.9775 4.88695 11.5735 5.29092C11.0577 5.80672 10.2249 5.80675 9.70905 5.29092C9.19322 4.77509 9.19325 3.94227 9.70905 3.42647C10.113 3.0225 10.7158 2.9417 11.2068 3.17168L12.9656 1.41287C12.891 1.37555 12.8102 1.34452 12.7232 1.31965L8.74574 0.325313C8.29832 0.213458 7.81979 0.343946 7.49037 0.67333L0.386861 7.77684C-0.128939 8.29264 -0.128968 9.12543 0.386861 9.64129L5.35871 14.6131C5.87454 15.129 6.70736 15.1289 7.22316 14.6131L14.3266 7.5096C14.6561 7.18018 14.7865 6.70165 14.6747 6.25423ZM5.35871 5.29092C5.87454 4.77509 6.7073 4.77509 7.22316 5.29092C7.73901 5.80675 7.73899 6.63951 7.22316 7.15537C6.70736 7.67117 5.87457 7.6712 5.35871 7.15537C4.84285 6.63954 4.84291 5.80672 5.35871 5.29092ZM7.84463 11.5057C7.3288 12.0215 6.49601 12.0215 5.98018 11.5057C5.46435 10.9899 5.46438 10.1571 5.98018 9.64126C6.49601 9.12543 7.32877 9.12543 7.84463 9.64126C8.36046 10.1571 8.36046 10.9899 7.84463 11.5057ZM9.44687 8.52456L3.85355 9.14603C3.71548 9.16091 3.58528 9.11084 3.49396 9.0195C3.426 8.95153 3.37956 8.8608 3.36802 8.75761C3.34162 8.51638 3.5152 8.29909 3.75643 8.27208L9.34975 7.6506C9.59069 7.62511 9.80828 7.79779 9.83529 8.03902C9.86169 8.28028 9.68813 8.49754 9.44687 8.52456Z" fill="#333333"/>
</svg>
