<svg width="15" height="13" viewBox="0 0 15 13" fill="none" xmlns="http://www.w3.org/2000/svg">
<path d="M12.9175 0.98999H2.08251C0.932432 0.98999 0 1.92242 0 3.0725V9.9275C0 11.0776 0.932432 12.01 2.08251 12.01H12.9175C14.0675 12.01 15 11.0776 15 9.9275V3.0725C15 1.92242 14.0675 0.98999 12.9175 0.98999ZM5.21971 8.42539L2.3035 10.9133C2.0978 11.0888 1.78857 11.0644 1.61306 10.8585C1.43751 10.6528 1.46191 10.3436 1.66784 10.1681L4.58405 7.6802C4.78972 7.50465 5.09892 7.52905 5.27446 7.73498C5.45001 7.94064 5.42561 8.24987 5.21971 8.42539ZM7.5 7.47957C7.10994 7.4786 6.73184 7.34899 6.43623 7.09335L6.43646 7.09358L6.43553 7.09288C6.43576 7.09312 6.43603 7.09311 6.43623 7.09335L1.96178 3.20978C1.75729 3.0323 1.73552 2.72311 1.91273 2.51888C2.09019 2.31438 2.39941 2.29262 2.60361 2.46983L7.07933 6.35437C7.17498 6.4395 7.3326 6.50097 7.5 6.5C7.66717 6.5005 7.82212 6.4407 7.92305 6.3527L7.92522 6.35079L12.3964 2.46986C12.6006 2.29265 12.9098 2.31441 13.0873 2.51891C13.2645 2.72311 13.2427 3.03233 13.0382 3.20981L8.56254 7.09455C8.2679 7.34753 7.89029 7.47907 7.5 7.47957ZM13.3871 10.8585C13.2116 11.0644 12.9024 11.0888 12.6967 10.9133L9.78053 8.42539C9.57463 8.24984 9.55022 7.94064 9.72577 7.73498C9.90129 7.52905 10.2105 7.50468 10.4162 7.6802L13.3324 10.1681C13.5383 10.3436 13.5627 10.6528 13.3871 10.8585Z" fill="#333333"/>
</svg>
