<svg width="16" height="18" viewBox="0 0 16 18" fill="none" xmlns="http://www.w3.org/2000/svg">
<path fill-rule="evenodd" clip-rule="evenodd" d="M7.99981 3.15113C9.71234 3.15113 11.1006 4.53942 11.1006 6.25191C11.1006 7.96444 9.71234 9.35269 7.99981 9.35269C6.28728 9.35269 4.89906 7.96444 4.89906 6.25191C4.89906 4.53945 6.28728 3.15113 7.99981 3.15113ZM8.28106 11.9456V17.7646L14.021 15.5328V11.8939L9.53283 13.639C9.4023 13.6895 9.25707 13.6356 9.18918 13.518L8.28106 11.9456ZM7.71856 17.7646V11.9456L6.81068 13.5181C6.73826 13.6431 6.58424 13.6913 6.45511 13.6344L1.97867 11.8939V15.5328L7.71856 17.7646ZM14.1794 8.79526L8.40621 11.0401L9.55452 13.029L15.3277 10.7842L14.1794 8.79526ZM7.5934 11.0401L1.82018 8.79526L0.671875 10.7842L6.44513 13.029L7.5934 11.0401ZM7.99981 9.91519C6.45986 9.91519 5.14185 8.96499 4.60009 7.61889L2.47093 8.44675L7.99981 10.5966L13.5287 8.44675L11.3995 7.61889C10.8578 8.96496 9.53979 9.91519 7.99981 9.91519ZM13.6611 6.0447C13.8164 6.0447 13.9423 6.17063 13.9423 6.32595C13.9423 6.48127 13.8164 6.6072 13.6611 6.6072H12.3439C12.1885 6.6072 12.0626 6.48127 12.0626 6.32595C12.0626 6.17063 12.1885 6.0447 12.3439 6.0447H13.6611ZM7.71856 0.516663C7.71856 0.361342 7.84449 0.235413 7.99981 0.235413C8.15513 0.235413 8.28106 0.361342 8.28106 0.516663V1.83393C8.28106 1.98925 8.15513 2.11518 7.99981 2.11518C7.84449 2.11518 7.71856 1.98925 7.71856 1.83393V0.516663ZM4.87945 1.38752C4.80242 1.25347 4.84865 1.08226 4.98273 1.00519C5.11682 0.928167 5.28803 0.974397 5.36506 1.10848L6.02368 2.24927C6.10074 2.38335 6.05451 2.55456 5.92039 2.63159C5.78634 2.70862 5.61509 2.66242 5.53806 2.5283L4.87945 1.38752ZM2.85529 3.56299C2.7212 3.48533 2.67546 3.31362 2.75312 3.17957C2.83075 3.04552 3.00245 2.99971 3.13654 3.07741L4.27729 3.73603C4.41134 3.81369 4.45711 3.98539 4.37945 4.11944C4.30183 4.25349 4.13009 4.29926 3.99604 4.2216L2.85529 3.56299ZM2.19052 6.45916C2.0352 6.45916 1.90927 6.33323 1.90927 6.17791C1.90927 6.02259 2.0352 5.89666 2.19052 5.89666H3.50775C3.66311 5.89666 3.789 6.02259 3.789 6.17791C3.789 6.33323 3.66311 6.45916 3.50775 6.45916H2.19052ZM10.6147 1.18249C10.6918 1.04844 10.863 1.00217 10.9971 1.0792C11.1311 1.15623 11.1774 1.32747 11.1004 1.46152L10.4418 2.60231C10.3647 2.73639 10.1935 2.78262 10.0594 2.7056C9.92535 2.62857 9.87909 2.45736 9.95615 2.32327L10.6147 1.18249ZM12.7891 3.20559C12.9232 3.12789 13.0949 3.1737 13.1725 3.30775C13.2502 3.4418 13.2044 3.61351 13.0704 3.69117L11.9296 4.34978C11.7955 4.42744 11.6238 4.38167 11.5462 4.24762C11.4685 4.11357 11.5143 3.94187 11.6483 3.86421L12.7891 3.20559ZM9.17389 4.83786L7.33708 6.6747L6.71024 5.88587C6.55605 5.69187 6.27381 5.65967 6.07986 5.81383C5.88586 5.96806 5.85362 6.25026 6.00786 6.44425L6.93028 7.60508C7.08979 7.83356 7.41825 7.86481 7.61703 7.666L9.80951 5.47355C9.98498 5.29802 9.98498 5.01343 9.80951 4.83786C9.63401 4.66236 9.34942 4.66236 9.17389 4.83786Z" fill="#333333"/>
</svg>
