<svg width="15" height="15" viewBox="0 0 15 15" fill="none" xmlns="http://www.w3.org/2000/svg">
<path fill-rule="evenodd" clip-rule="evenodd" d="M6.68676 9.46873C6.76272 9.39279 6.82297 9.30262 6.86408 9.20339C6.90519 9.10415 6.92635 8.99779 6.92635 8.89038C6.92635 8.78297 6.90519 8.67661 6.86408 8.57738C6.82297 8.47814 6.76272 8.38798 6.68676 8.31203C6.47337 8.09865 6.3041 7.84534 6.18861 7.56655C6.07312 7.28776 6.01368 6.98895 6.01368 6.68719C6.01368 6.38543 6.07312 6.08662 6.18861 5.80783C6.3041 5.52904 6.47337 5.27573 6.68676 5.06235L9.44118 2.30886C9.65457 2.09548 9.9079 1.92622 10.1867 1.81074C10.4655 1.69526 10.7643 1.63583 11.0661 1.63583C11.3679 1.63583 11.6667 1.69526 11.9455 1.81074C12.2243 1.92622 12.4776 2.09548 12.691 2.30886C12.9044 2.52223 13.0737 2.77555 13.1892 3.05434C13.3047 3.33313 13.3641 3.63193 13.3641 3.93369C13.3641 4.23545 13.3047 4.53426 13.1892 4.81305C13.0737 5.09184 12.9044 5.34515 12.691 5.55853L11.8396 6.40912C11.7637 6.48507 11.7034 6.57523 11.6623 6.67447C11.6212 6.7737 11.6 6.88006 11.6 6.98747C11.6 7.09488 11.6212 7.20124 11.6623 7.30047C11.7034 7.3997 11.7637 7.48987 11.8396 7.56582C11.993 7.71921 12.2011 7.80538 12.418 7.80538C12.5254 7.80538 12.6318 7.78422 12.731 7.74312C12.8303 7.70202 12.9204 7.64177 12.9964 7.56582L13.8478 6.71523C14.5855 5.97752 15 4.97697 15 3.93369C15 2.89041 14.5855 1.88986 13.8478 1.15215C13.11 0.414441 12.1094 0 11.0661 0C10.0228 0 9.02217 0.414441 8.28442 1.15215L5.53 3.90565C5.16469 4.27092 4.8749 4.70456 4.6772 5.18182C4.47949 5.65908 4.37773 6.17061 4.37773 6.68719C4.37773 7.20378 4.47949 7.7153 4.6772 8.19256C4.8749 8.66982 5.16469 9.10346 5.53 9.46873C5.84937 9.78809 6.36738 9.78809 6.68676 9.46873ZM8.28364 5.55853C8.20768 5.63448 8.14743 5.72464 8.10632 5.82388C8.06521 5.92311 8.04405 6.02947 8.04405 6.13688C8.04405 6.24429 8.06521 6.35065 8.10632 6.44989C8.14743 6.54912 8.20768 6.63929 8.28364 6.71523C8.49703 6.92861 8.6663 7.18192 8.78179 7.46071C8.89728 7.7395 8.95672 8.03831 8.95672 8.34007C8.95672 8.64183 8.89728 8.94064 8.78179 9.21943C8.6663 9.49822 8.49703 9.75153 8.28364 9.96491L5.55726 12.6911C5.345 12.9095 5.09145 13.0835 4.81134 13.2031C4.53123 13.3226 4.23016 13.3853 3.92562 13.3874C3.62108 13.3896 3.31915 13.3311 3.03738 13.2156C2.75561 13.1 2.49963 12.9296 2.28431 12.7142C2.06899 12.4989 1.89862 12.2429 1.78312 11.9611C1.66762 11.6793 1.60929 11.3774 1.61151 11.0729C1.61373 10.7683 1.67647 10.4673 1.79607 10.1872C1.91567 9.90717 2.08975 9.65367 2.3082 9.44147L3.10664 8.64307C3.26003 8.48968 3.34621 8.28164 3.34621 8.06472C3.34621 7.8478 3.26003 7.63976 3.10664 7.48637C2.95324 7.33298 2.74519 7.24681 2.52825 7.24681C2.31132 7.24681 2.10327 7.33298 1.94987 7.48637L1.15221 8.28477C0.414463 9.02248 0 10.023 0 11.0663C0 12.1096 0.414463 13.1101 1.15221 13.8478C1.88996 14.5856 2.89056 15 3.9339 15C4.97723 15 5.97783 14.5856 6.71558 13.8478L9.44196 11.1216C9.80727 10.7563 10.0971 10.3227 10.2948 9.84544C10.4925 9.36818 10.5942 8.85666 10.5942 8.34007C10.5942 7.82349 10.4925 7.31196 10.2948 6.8347C10.0971 6.35744 9.80727 5.9238 9.44196 5.55853C9.36601 5.48257 9.27584 5.42232 9.1766 5.38122C9.07736 5.34011 8.971 5.31895 8.86358 5.31895C8.75616 5.31895 8.6498 5.34011 8.55056 5.38122C8.45132 5.42232 8.36115 5.48257 8.2852 5.55853H8.28364Z" fill="#333333"/>
</svg>
