<svg width="15" height="15" viewBox="0 0 15 15" fill="none" xmlns="http://www.w3.org/2000/svg">
<path d="M9.9158 1.74992C9.9148 1.75021 9.74805 1.80183 9.46659 1.88896C9.41963 1.73641 9.35037 1.549 9.25164 1.36074C8.9333 0.75353 8.46733 0.432114 7.90407 0.431294C7.90343 0.431294 7.90284 0.431294 7.90217 0.431294C7.86311 0.431294 7.82421 0.434985 7.78527 0.438501C7.76872 0.418579 7.75199 0.398804 7.73435 0.379936C7.48914 0.117466 7.17426 -0.0103859 6.79735 0.000658981C6.06979 0.0215184 5.34558 0.54687 4.75817 1.47986C4.34468 2.13652 4.03056 2.9614 3.9412 3.59987C3.10601 3.8585 2.52162 4.03947 2.50899 4.04345C2.08741 4.17576 2.07417 4.189 2.01889 4.58621C1.97702 4.88691 0.874023 13.4172 0.874023 13.4172L10.0266 15V1.7312C9.98143 1.73407 9.94108 1.74248 9.9158 1.74992ZM7.80235 2.40426C7.31802 2.55423 6.78924 2.71797 6.25885 2.88221C6.40817 2.31095 6.69086 1.74221 7.0382 1.36956C7.16743 1.23095 7.34819 1.07629 7.56224 0.987964C7.76359 1.40758 7.80722 2.00243 7.80235 2.40426ZM6.81133 0.484702C6.98213 0.481128 7.12601 0.518598 7.24885 0.599458C7.05235 0.70147 6.86225 0.848159 6.68397 1.03935C6.22187 1.53505 5.86794 2.30471 5.72679 3.04695C5.28628 3.18335 4.85544 3.31674 4.45908 3.4395C4.7091 2.27058 5.68855 0.516987 6.81133 0.484702ZM5.39579 7.14171C5.44495 7.92034 7.49327 8.09046 7.60844 9.91417C7.69902 11.349 6.84742 12.3304 5.62029 12.4079C4.14774 12.5009 3.33692 11.632 3.33692 11.632L3.64894 10.3045C3.64894 10.3045 4.46491 10.9201 5.11811 10.8789C5.54477 10.8519 5.69726 10.5049 5.68176 10.2595C5.61763 9.24385 3.94967 9.30368 3.84429 7.63478C3.75561 6.2302 4.6779 4.80728 6.71304 4.67878C7.4972 4.62927 7.89871 4.82949 7.89871 4.82949L7.4333 6.57042C7.4333 6.57042 6.91419 6.33406 6.29875 6.3729C5.39635 6.42983 5.38677 6.99907 5.39579 7.14171ZM8.28599 2.25453C8.28062 1.88615 8.23662 1.37374 8.065 0.930806C8.61698 1.0354 8.88877 1.65995 9.00347 2.03237C8.79077 2.09823 8.54846 2.17323 8.28599 2.25453Z" fill="#333333"/>
<path d="M10.3291 14.9638L14.126 14.0201C14.126 14.0201 12.4913 2.96728 12.4809 2.89149C12.4705 2.81567 12.4041 2.77375 12.3494 2.76918C12.2946 2.76461 11.2257 2.74835 11.2257 2.74835C11.2257 2.74835 10.574 2.11539 10.3291 1.87595V14.9638H10.3291Z" fill="#333333"/>
</svg>
