<svg width="13" height="16" viewBox="0 0 13 16" fill="none" xmlns="http://www.w3.org/2000/svg">
<path d="M3.58737 3.52941H5.97683V0.237062C5.97683 0.105625 6.08488 0 6.21815 0H6.69182C6.82715 0 6.93314 0.106125 6.93314 0.237062V3.52941H9.3226C10.3816 3.52941 11.2364 4.37131 11.2364 5.41191V7.80506L11.6857 7.36287C11.7793 7.27081 11.931 7.27184 12.0253 7.36459L12.3602 7.69425C12.4559 7.78841 12.4546 7.93716 12.3606 8.02966L11.0964 9.27394C10.9096 9.45772 10.6069 9.45772 10.4202 9.27394L9.1559 8.02966C9.06284 7.93806 9.06211 7.78697 9.15635 7.69425L9.49127 7.36459C9.58697 7.27044 9.7375 7.27109 9.83079 7.36287L10.2801 7.80506V5.41191C10.2801 4.89094 9.85321 4.47056 9.3225 4.47056H3.58737C3.05803 4.47056 2.62979 4.89138 2.62979 5.41144V7.80506L3.07908 7.36287C3.17262 7.27081 3.32437 7.27184 3.41861 7.36459L3.75353 7.69425C3.84923 7.78841 3.84796 7.93716 3.75397 8.02966L2.4897 9.27394C2.30297 9.45772 2.00021 9.45772 1.81351 9.27394L0.549245 8.02966C0.45618 7.93806 0.45545 7.78697 0.54969 7.69425L0.88461 7.36459C0.98031 7.27044 1.13088 7.27109 1.22413 7.36287L1.67342 7.80506V5.41144C1.67352 4.37128 2.53022 3.52941 3.58737 3.52941ZM12.4318 16H9.08481C8.82073 16 8.60666 15.7893 8.60666 15.5294V11.2941C8.60666 11.0342 8.82073 10.8235 9.08481 10.8235H12.4318C12.6959 10.8235 12.91 11.0342 12.91 11.2941V15.5294C12.91 15.7893 12.6959 16 12.4318 16ZM3.82516 16H0.478153C0.214072 16 0 15.7893 0 15.5294V11.2941C0 11.0342 0.214072 10.8235 0.478153 10.8235H3.82519C4.08927 10.8235 4.30334 11.0342 4.30334 11.2941V15.5294C4.30331 15.7893 4.08924 16 3.82516 16Z" fill="#333333"/>
</svg>
