<svg width="11" height="17" viewBox="0 0 11 17" fill="none" xmlns="http://www.w3.org/2000/svg">
<path d="M3.80942 16.9596C4.0343 17.0558 4.29578 16.9755 4.42713 16.768L10.4037 7.27194C10.5005 7.11824 10.5063 6.92417 10.4188 6.76563C10.3312 6.60658 10.1639 6.50784 9.98248 6.50784H5.99372L7.47717 0.620624C7.537 0.38279 7.41588 0.137153 7.19069 0.0403662C6.96697 -0.0559228 6.70384 0.024794 6.57298 0.231981L0.59642 9.72807C0.499633 9.88177 0.493789 10.0758 0.581345 10.2344C0.668902 10.3934 0.836213 10.4922 1.01763 10.4922H5.00639L3.52294 16.3794C3.46311 16.6173 3.5842 16.8629 3.80942 16.9596Z" fill="white"/>
</svg>
