<svg width="15" height="15" viewBox="0 0 15 15" fill="none" xmlns="http://www.w3.org/2000/svg">
<g clip-path="url(#clip0_303_135)">
<path d="M7.5 1.99219C4.4625 1.99219 1.99219 4.4625 1.99219 7.5C1.99219 10.5375 4.4625 13.0078 7.5 13.0078C10.5375 13.0078 13.0078 10.5375 13.0078 7.5C13.0078 4.4625 10.5375 1.99219 7.5 1.99219ZM9.40781 9.40312C9.3375 9.47344 9.24844 9.50625 9.15938 9.50625C9.07031 9.50625 8.97656 9.47344 8.91094 9.40312L7.77187 8.26875C7.6875 8.30156 7.59375 8.32031 7.5 8.32031C7.05 8.32031 6.67969 7.95 6.67969 7.5C6.67969 7.17656 6.87187 6.89062 7.14844 6.76406V4.46719C7.14844 4.275 7.30312 4.11562 7.5 4.11562C7.69219 4.11562 7.85156 4.275 7.85156 4.46719V6.76406C8.12813 6.89062 8.32031 7.17656 8.32031 7.5C8.32031 7.59375 8.30156 7.6875 8.26875 7.77187L9.40781 8.90625C9.54375 9.04688 9.54375 9.26719 9.40781 9.40312Z" fill="#333333"/>
<path d="M7.49938 14.8839C5.32753 14.8839 3.20371 13.926 1.76657 12.1593C1.36809 11.6579 1.03874 11.1234 0.784916 10.5677C0.704104 10.391 0.781963 10.1825 0.958635 10.1019C1.13578 10.0207 1.34409 10.0991 1.42443 10.2756C1.65468 10.7796 1.95407 11.265 2.31454 11.7189C4.23145 14.0757 7.50628 14.8397 10.2755 13.5756C11.8978 12.8347 13.1342 11.5056 13.7577 9.83315C14.3812 8.1607 14.3167 6.34636 13.5755 4.72429C12.8348 3.10242 11.5055 1.86558 9.83329 1.24209C8.16201 0.618842 6.3472 0.683154 4.72443 1.4243C1.95567 2.68936 0.389854 5.6655 0.91701 8.66179C0.950666 8.8529 0.822932 9.03534 0.631588 9.069C0.440713 9.10265 0.258041 8.97492 0.224385 8.78358C-0.35813 5.47209 1.37221 2.18283 4.4324 0.784826C6.22499 -0.034127 8.23021 -0.105986 10.0792 0.583404C11.9272 1.27256 13.3961 2.63944 14.2155 4.43226C15.0344 6.22509 15.1058 8.23031 14.4169 10.0788C13.7275 11.9272 12.3607 13.3962 10.5676 14.2151C9.58021 14.6662 8.53415 14.8839 7.49938 14.8839Z" fill="#333333"/>
<path d="M0.641682 12.0156C0.600713 12.0156 0.559276 12.0085 0.518776 11.9934C0.337042 11.9257 0.24437 11.7231 0.312339 11.5411L0.775604 10.2988C0.808089 10.2116 0.874042 10.1406 0.958932 10.1019C1.0434 10.0623 1.1402 10.0596 1.22785 10.0923L2.46999 10.5556C2.65196 10.6233 2.7444 10.8259 2.67643 11.0078C2.6087 11.19 2.4061 11.2818 2.22418 11.2143L1.31162 10.8739L0.971026 11.7869C0.918385 11.9284 0.784276 12.0156 0.641682 12.0156Z" fill="#333333"/>
</g>
<defs>
<clipPath id="clip0_303_135">
<rect width="15" height="15" fill="white"/>
</clipPath>
</defs>
</svg>
