<svg width="15" height="15" viewBox="0 0 15 15" fill="none" xmlns="http://www.w3.org/2000/svg">
<path d="M13.9627 6.02959C13.7702 5.90031 13.5963 5.74525 13.4459 5.56868C13.4571 5.32285 13.5065 5.08027 13.5924 4.84969C13.7538 4.30313 13.9549 3.62292 13.5674 3.09066C13.1771 2.55417 12.464 2.53616 11.8912 2.52152C11.6502 2.53114 11.4092 2.50523 11.1757 2.4446C11.0474 2.24328 10.9494 2.02417 10.8849 1.79428C10.6938 1.24994 10.4557 0.572436 9.81799 0.365211C9.19924 0.164112 8.64395 0.546182 8.15433 0.882167C7.95756 1.03927 7.73665 1.16345 7.50017 1.24992C7.26357 1.16355 7.04254 1.03935 6.84575 0.882167C6.3561 0.545887 5.80066 0.165022 5.18206 0.365211C4.54457 0.572436 4.30653 1.2496 4.11518 1.79406C4.05081 2.02279 3.95389 2.24109 3.8274 2.44224C3.59323 2.50471 3.35096 2.53136 3.10882 2.52129C2.53601 2.53591 1.82298 2.55395 1.43267 3.09041C1.04516 3.62297 1.24621 4.30318 1.40767 4.84979C1.49255 5.07916 1.5424 5.31999 1.55552 5.56423C1.40582 5.74328 1.23127 5.90001 1.03719 6.02961C0.575 6.38208 0 6.82089 0 7.49992C0 8.17895 0.575 8.61776 1.03728 8.97026C1.22982 9.09953 1.40373 9.2546 1.55409 9.43116C1.54292 9.67699 1.49351 9.91955 1.40762 10.1502C1.24618 10.6967 1.04511 11.377 1.43262 11.9092C1.82293 12.4457 2.53596 12.4637 3.1088 12.4784C3.34978 12.4687 3.59084 12.4946 3.82427 12.5553C3.95261 12.7566 4.05061 12.9757 4.11511 13.2056C4.30646 13.75 4.54449 14.4275 5.18214 14.6347C5.2951 14.6718 5.41325 14.6906 5.53215 14.6906C6.01205 14.6906 6.45027 14.3894 6.8458 14.1178C7.04256 13.9606 7.26347 13.8364 7.49998 13.7499C7.73658 13.8363 7.95761 13.9605 8.15445 14.1177C8.64407 14.454 9.19936 14.8345 9.81811 14.6346C10.4556 14.4274 10.6936 13.7502 10.885 13.2058C10.9494 12.977 11.0463 12.7588 11.1728 12.5576C11.4069 12.4951 11.6492 12.4685 11.8913 12.4785C12.4642 12.4639 13.1772 12.4459 13.5675 11.9094C13.955 11.3769 13.754 10.6966 13.5925 10.1501C13.5076 9.92068 13.4578 9.67985 13.4447 9.43562C13.5944 9.25656 13.7689 9.09983 13.963 8.97023C14.425 8.61776 15 8.17895 15 7.49992C15 6.82089 14.425 6.38208 13.9627 6.02959ZM10.2857 6.37932L7.16064 9.50431C6.91666 9.74837 6.52103 9.74845 6.27697 9.50446C6.27692 9.50441 6.27687 9.50436 6.27682 9.50431L4.71432 7.94181C4.46716 7.70085 4.46214 7.30515 4.7031 7.05799C4.94406 6.81083 5.33976 6.80581 5.58692 7.04677C5.59071 7.05046 5.59445 7.0542 5.59814 7.05799L6.71873 8.17861L9.40184 5.49548C9.6428 5.24832 10.0385 5.24332 10.2857 5.48428C10.5328 5.72524 10.5378 6.12094 10.2969 6.3681C10.2932 6.37192 10.2894 6.37563 10.2857 6.37932Z" fill="#333333"/>
</svg>
