<svg width="14" height="14" viewBox="0 0 14 14" fill="none" xmlns="http://www.w3.org/2000/svg">
<path fill-rule="evenodd" clip-rule="evenodd" d="M11.0747 9.88477C10.906 10.3623 10.2354 10.7574 9.7006 10.8729C9.3345 10.9506 8.8571 11.0121 7.2485 10.3455C5.4418 9.59698 2.933 6.93068 2.933 5.15635C2.933 4.25307 3.4538 3.20127 4.3645 3.20127C4.8027 3.20127 4.8993 3.20981 5.0435 3.55571C5.2122 3.96324 5.6238 4.96729 5.6728 5.07021C5.8751 5.49244 5.467 5.73961 5.1709 6.10723C5.0764 6.21785 4.9693 6.3375 5.089 6.54336C5.208 6.74502 5.6196 7.41584 6.2244 7.9543C7.0056 8.65031 7.6391 8.87251 7.8659 8.96704C8.0346 9.03706 8.2362 9.02075 8.3594 8.88911C8.5155 8.72036 8.7094 8.44039 8.9068 8.1645C9.0461 7.96704 9.22321 7.94238 9.40871 8.0124C9.53401 8.05582 11.1265 8.79539 11.1937 8.91372C11.2434 8.99985 11.2434 9.40722 11.0747 9.88477ZM7.0014 0H6.9979C3.1388 0 0 3.13974 0 7C0 8.53066 0.493505 9.95074 1.3328 11.1026L0.460603 13.7037L3.1507 12.844C4.2574 13.5765 5.5783 14 7.0014 14C10.8605 14 14 10.8603 14 7C14 3.13974 10.8605 0 7.0014 0Z" fill="#333333"/>
</svg>
